<svg xmlns="http://www.w3.org/2000/svg" xmlns:xlink="http://www.w3.org/1999/xlink" width="500" zoomAndPan="magnify" viewBox="0 0 375 374.999991" height="500" preserveAspectRatio="xMidYMid meet" version="1.0"><defs><g/></defs><rect x="-37.5" width="450" fill="#ffffff" y="-37.499999" height="449.999989" fill-opacity="1"/><rect x="-37.5" width="450" fill="#ffffff" y="-37.499999" height="449.999989" fill-opacity="1"/><g fill="#000000" fill-opacity="1"><g transform="translate(151.269897, 215.689644)"><g><path d="M 8.5 0 L 7.921875 -1.484375 L 7.84375 -1.484375 C 7.34375 -0.847656 6.828125 -0.40625 6.296875 -0.15625 C 5.765625 0.0820312 5.070312 0.203125 4.21875 0.203125 C 3.164062 0.203125 2.335938 -0.0976562 1.734375 -0.703125 C 1.140625 -1.304688 0.84375 -2.160156 0.84375 -3.265625 C 0.84375 -4.421875 1.242188 -5.273438 2.046875 -5.828125 C 2.859375 -6.378906 4.082031 -6.679688 5.71875 -6.734375 L 7.625 -6.796875 L 7.625 -7.28125 C 7.625 -8.382812 7.054688 -8.9375 5.921875 -8.9375 C 5.046875 -8.9375 4.019531 -8.671875 2.84375 -8.140625 L 1.859375 -10.15625 C 3.109375 -10.8125 4.5 -11.140625 6.03125 -11.140625 C 7.5 -11.140625 8.625 -10.820312 9.40625 -10.1875 C 10.1875 -9.550781 10.578125 -8.582031 10.578125 -7.28125 L 10.578125 0 Z M 7.625 -5.0625 L 6.46875 -5.015625 C 5.601562 -4.992188 4.957031 -4.835938 4.53125 -4.546875 C 4.101562 -4.265625 3.890625 -3.832031 3.890625 -3.25 C 3.890625 -2.40625 4.375 -1.984375 5.34375 -1.984375 C 6.03125 -1.984375 6.582031 -2.179688 7 -2.578125 C 7.414062 -2.972656 7.625 -3.5 7.625 -4.15625 Z M 7.625 -5.0625 "/></g></g></g><g fill="#000000" fill-opacity="1"><g transform="translate(163.348797, 215.689644)"><g><path d="M 8.5 0 L 7.921875 -1.484375 L 7.84375 -1.484375 C 7.34375 -0.847656 6.828125 -0.40625 6.296875 -0.15625 C 5.765625 0.0820312 5.070312 0.203125 4.21875 0.203125 C 3.164062 0.203125 2.335938 -0.0976562 1.734375 -0.703125 C 1.140625 -1.304688 0.84375 -2.160156 0.84375 -3.265625 C 0.84375 -4.421875 1.242188 -5.273438 2.046875 -5.828125 C 2.859375 -6.378906 4.082031 -6.679688 5.71875 -6.734375 L 7.625 -6.796875 L 7.625 -7.28125 C 7.625 -8.382812 7.054688 -8.9375 5.921875 -8.9375 C 5.046875 -8.9375 4.019531 -8.671875 2.84375 -8.140625 L 1.859375 -10.15625 C 3.109375 -10.8125 4.5 -11.140625 6.03125 -11.140625 C 7.5 -11.140625 8.625 -10.820312 9.40625 -10.1875 C 10.1875 -9.550781 10.578125 -8.582031 10.578125 -7.28125 L 10.578125 0 Z M 7.625 -5.0625 L 6.46875 -5.015625 C 5.601562 -4.992188 4.957031 -4.835938 4.53125 -4.546875 C 4.101562 -4.265625 3.890625 -3.832031 3.890625 -3.25 C 3.890625 -2.40625 4.375 -1.984375 5.34375 -1.984375 C 6.03125 -1.984375 6.582031 -2.179688 7 -2.578125 C 7.414062 -2.972656 7.625 -3.5 7.625 -4.15625 Z M 7.625 -5.0625 "/></g></g></g><g fill="#000000" fill-opacity="1"><g transform="translate(175.427698, 215.689644)"><g><path d="M 8.5 0 L 7.921875 -1.484375 L 7.84375 -1.484375 C 7.34375 -0.847656 6.828125 -0.40625 6.296875 -0.15625 C 5.765625 0.0820312 5.070312 0.203125 4.21875 0.203125 C 3.164062 0.203125 2.335938 -0.0976562 1.734375 -0.703125 C 1.140625 -1.304688 0.84375 -2.160156 0.84375 -3.265625 C 0.84375 -4.421875 1.242188 -5.273438 2.046875 -5.828125 C 2.859375 -6.378906 4.082031 -6.679688 5.71875 -6.734375 L 7.625 -6.796875 L 7.625 -7.28125 C 7.625 -8.382812 7.054688 -8.9375 5.921875 -8.9375 C 5.046875 -8.9375 4.019531 -8.671875 2.84375 -8.140625 L 1.859375 -10.15625 C 3.109375 -10.8125 4.5 -11.140625 6.03125 -11.140625 C 7.5 -11.140625 8.625 -10.820312 9.40625 -10.1875 C 10.1875 -9.550781 10.578125 -8.582031 10.578125 -7.28125 L 10.578125 0 Z M 7.625 -5.0625 L 6.46875 -5.015625 C 5.601562 -4.992188 4.957031 -4.835938 4.53125 -4.546875 C 4.101562 -4.265625 3.890625 -3.832031 3.890625 -3.25 C 3.890625 -2.40625 4.375 -1.984375 5.34375 -1.984375 C 6.03125 -1.984375 6.582031 -2.179688 7 -2.578125 C 7.414062 -2.972656 7.625 -3.5 7.625 -4.15625 Z M 7.625 -5.0625 "/></g></g></g><g fill="#000000" fill-opacity="1"><g transform="translate(187.506598, 215.689644)"><g><path d="M 8.5 0 L 7.921875 -1.484375 L 7.84375 -1.484375 C 7.34375 -0.847656 6.828125 -0.40625 6.296875 -0.15625 C 5.765625 0.0820312 5.070312 0.203125 4.21875 0.203125 C 3.164062 0.203125 2.335938 -0.0976562 1.734375 -0.703125 C 1.140625 -1.304688 0.84375 -2.160156 0.84375 -3.265625 C 0.84375 -4.421875 1.242188 -5.273438 2.046875 -5.828125 C 2.859375 -6.378906 4.082031 -6.679688 5.71875 -6.734375 L 7.625 -6.796875 L 7.625 -7.28125 C 7.625 -8.382812 7.054688 -8.9375 5.921875 -8.9375 C 5.046875 -8.9375 4.019531 -8.671875 2.84375 -8.140625 L 1.859375 -10.15625 C 3.109375 -10.8125 4.5 -11.140625 6.03125 -11.140625 C 7.5 -11.140625 8.625 -10.820312 9.40625 -10.1875 C 10.1875 -9.550781 10.578125 -8.582031 10.578125 -7.28125 L 10.578125 0 Z M 7.625 -5.0625 L 6.46875 -5.015625 C 5.601562 -4.992188 4.957031 -4.835938 4.53125 -4.546875 C 4.101562 -4.265625 3.890625 -3.832031 3.890625 -3.25 C 3.890625 -2.40625 4.375 -1.984375 5.34375 -1.984375 C 6.03125 -1.984375 6.582031 -2.179688 7 -2.578125 C 7.414062 -2.972656 7.625 -3.5 7.625 -4.15625 Z M 7.625 -5.0625 "/></g></g></g><path fill="#64b8b1" d="M 188.25 0.125 C 84.28125 0.125 0 83.996094 0 187.464844 C 0 290.925781 84.28125 374.804688 188.25 374.804688 C 292.214844 374.804688 376.5 290.925781 376.5 187.464844 C 376.5 83.996094 292.214844 0.125 188.25 0.125 Z M 274.609375 270.546875 C 272.300781 273.800781 268.679688 275.535156 264.984375 275.535156 C 262.632812 275.535156 260.277344 274.855469 258.230469 273.40625 C 214.109375 242.539062 140.71875 240.828125 91.164062 252.328125 C 84.878906 253.804688 78.5 249.867188 77.039062 243.570312 C 75.582031 237.269531 79.488281 230.96875 85.84375 229.496094 C 140.316406 216.945312 221.734375 219.238281 271.742188 254.25 C 277.078125 257.972656 278.324219 265.277344 274.609375 270.546875 Z M 297.546875 224.835938 C 295.273438 228.023438 291.667969 229.730469 288 229.730469 C 285.597656 229.730469 283.222656 229.027344 281.128906 227.53125 C 229.972656 190.972656 167.097656 181.886719 83.183594 198.9375 C 76.855469 200.175781 70.59375 196.152344 69.296875 189.804688 C 67.984375 183.484375 72.097656 177.277344 78.453125 175.988281 C 169.210938 157.558594 237.972656 167.859375 294.867188 208.492188 C 300.136719 212.261719 301.339844 219.589844 297.546875 224.835938 Z M 320.800781 163.484375 C 318.496094 166.832031 314.777344 168.636719 311.035156 168.636719 C 308.753906 168.636719 306.449219 167.976562 304.425781 166.617188 C 239.550781 122.808594 140.929688 122.59375 77.09375 145.078125 C 70.972656 147.1875 64.242188 144.023438 62.070312 137.910156 C 59.910156 131.824219 63.113281 125.125 69.25 122.96875 C 138.695312 98.546875 246.300781 99.066406 317.675781 147.230469 C 323.054688 150.867188 324.421875 158.144531 320.800781 163.484375 Z M 320.800781 163.484375 " fill-opacity="1" fill-rule="nonzero"/></svg>